<svg width="22" height="22" viewBox="0 0 22 22" fill="none" xmlns="http://www.w3.org/2000/svg">
<path d="M21.4122 22H0.587521C0.4317 22 0.282262 21.9381 0.172081 21.8279C0.0618991 21.7177 0 21.5683 0 21.4125V0.587528C0 0.431706 0.0618991 0.282266 0.172081 0.172083C0.282262 0.0619 0.4317 0 0.587521 0H21.4125C21.5683 0 21.7177 0.0619 21.8279 0.172083C21.9381 0.282266 22 0.431706 22 0.587528V21.4128C22 21.4899 21.9847 21.5663 21.9552 21.6376C21.9256 21.7088 21.8823 21.7736 21.8277 21.8281C21.7731 21.8827 21.7083 21.9259 21.637 21.9554C21.5657 21.9849 21.4893 22 21.4122 22ZM1.17504 20.8249H20.825V1.17506H1.17504V20.8249Z" fill="black"/>
</svg>
