<svg width="22" height="22" viewBox="0 0 22 22" fill="none" xmlns="http://www.w3.org/2000/svg">
<path d="M9.83333 22C9.27777 22 8.75925 21.8877 8.27777 21.663C7.79629 21.4383 7.39814 21.1173 7.08333 20.7L0 11.375L0.666666 10.8C1.01852 10.4833 1.43518 10.3 1.91667 10.25C2.39815 10.2 2.83333 10.3 3.22222 10.55L6.44444 12.575V3C6.44444 2.71667 6.55111 2.47934 6.76444 2.288C6.97777 2.09667 7.24148 2.00067 7.55555 2C7.86962 1.99934 8.1337 2.09534 8.34777 2.288C8.56185 2.48067 8.66814 2.718 8.66666 3V11H10.8889V1C10.8889 0.71667 10.9955 0.479337 11.2089 0.288003C11.4222 0.0966701 11.6859 0.000670115 12 3.44828e-06C12.3141 -0.000663218 12.5781 0.0953368 12.7922 0.288003C13.0063 0.48067 13.1126 0.718003 13.1111 1V11H15.3333V2C15.3333 1.71667 15.44 1.47934 15.6533 1.288C15.8667 1.09667 16.1304 1.00067 16.4444 1C16.7585 0.999337 17.0226 1.09534 17.2367 1.288C17.4507 1.48067 17.557 1.718 17.5555 2V11H19.7778V4C19.7778 3.71667 19.8844 3.47934 20.0978 3.288C20.3111 3.09667 20.5748 3.00067 20.8889 3C21.2029 2.99934 21.467 3.09534 21.6811 3.288C21.8952 3.48067 22.0015 3.718 22 4V18C22 19.1 21.5648 20.0417 20.6944 20.825C19.8241 21.6083 18.7778 22 17.5555 22H9.83333Z" fill="#656565"/>
</svg>
