<svg width="24" height="22" viewBox="0 0 24 22" fill="none" xmlns="http://www.w3.org/2000/svg">
<path d="M19.9098 16.39C20.3585 15.62 20.6951 14.74 20.6951 13.75C20.6951 11 18.4512 8.8 15.6463 8.8C12.8415 8.8 10.5976 11 10.5976 13.75C10.5976 16.5 12.8415 18.7 15.6463 18.7C16.6561 18.7 17.5537 18.37 18.339 17.93L21.9293 21.45L23.5 19.91L19.9098 16.39ZM15.6463 16.5C14.0756 16.5 12.8415 15.29 12.8415 13.75C12.8415 12.21 14.0756 11 15.6463 11C17.2171 11 18.4512 12.21 18.4512 13.75C18.4512 15.29 17.2171 16.5 15.6463 16.5ZM11.7195 19.8V22C5.52634 22 0.5 17.072 0.5 11C0.5 4.928 5.52634 0 11.7195 0C17.1498 0 21.6712 3.784 22.7146 8.8H20.3922C20.0423 7.47102 19.3801 6.24072 18.4587 5.20742C17.5372 4.17411 16.382 3.36646 15.0854 2.849V3.3C15.0854 4.51 14.0756 5.5 12.8415 5.5H10.5976V7.7C10.5976 8.305 10.0927 8.8 9.47561 8.8H7.23171V11H9.47561V14.3H8.35366L2.97951 9.031C2.83366 9.669 2.7439 10.318 2.7439 11C2.7439 15.851 6.77171 19.8 11.7195 19.8Z" fill="#656565"/>
</svg>
