<svg width="22" height="22" viewBox="0 0 22 22" fill="none" xmlns="http://www.w3.org/2000/svg">
<path d="M7.15385 0.000563318C5.63956 0.000563318 4.3956 1.59487 4.3956 3.53564C4.3956 4.66799 4.82088 5.68006 5.47472 6.32877L3.26703 12.1753C3.09927 12.134 2.92885 12.1129 2.75802 12.1125C1.24396 12.1128 0 13.7071 0 15.6478C0 17.5886 1.24396 19.1829 2.75824 19.1829C3.88571 19.1829 4.85494 18.2954 5.27758 17.0413L16.5473 19.2131C16.818 20.7986 17.9277 22 19.2418 22C20.7046 22 21.9042 20.5079 21.9846 18.6573C21.9947 18.5939 21.9998 18.5294 22 18.4646C22 18.3984 21.9947 18.3324 21.9844 18.2675C21.902 16.4191 20.7033 14.9296 19.2418 14.9296C19.2123 14.9296 19.1837 14.9338 19.1547 14.9349L17.6466 9.04247C18.3664 8.44334 18.8574 7.42394 18.9077 6.26314C18.9177 6.19972 18.9229 6.13519 18.9231 6.07047C18.9231 6.00424 18.9178 5.93818 18.9075 5.8733C18.8251 4.02492 17.6264 2.5354 16.1648 2.5354C15.0523 2.5354 14.0875 3.39733 13.6527 4.62405L9.89846 3.3517L9.89626 3.33846C9.81406 1.4898 8.61538 0 7.15385 0M7.15385 1.97176C7.8367 1.97176 8.37363 2.6599 8.37363 3.53507C8.37363 4.41025 7.8367 5.0984 7.15385 5.0984C6.47099 5.0984 5.93407 4.41025 5.93407 3.53507C5.93407 2.6599 6.47099 1.97176 7.15385 1.97176ZM16.1648 4.50687C16.8477 4.50687 17.3846 5.19501 17.3846 6.07019C17.3846 6.94537 16.8477 7.63351 16.1648 7.63351C15.482 7.63351 14.9451 6.94537 14.9451 6.07019C14.9451 5.19501 15.482 4.50687 16.1648 4.50687ZM9.54132 5.26966L13.44 6.59073C13.6389 8.28757 14.7888 9.60583 16.1648 9.60583L16.1721 9.60526L17.693 15.5464C17.2208 15.9619 16.8598 16.5534 16.6589 17.2407L5.46857 15.0848C5.37052 14.3164 5.07806 13.6107 4.63626 13.0764L6.90923 7.05466C6.99011 7.06395 7.07121 7.07071 7.15385 7.07071C8.17626 7.07071 9.06813 6.34032 9.54132 5.26966ZM2.75824 14.0845C3.4411 14.0845 3.97802 14.773 3.97802 15.6481C3.97802 16.5233 3.4411 17.2115 2.75824 17.2115C2.07538 17.2115 1.53846 16.5233 1.53846 15.6481C1.53846 14.773 2.07538 14.0845 2.75824 14.0845ZM19.2418 16.9016C19.9246 16.9016 20.4615 17.59 20.4615 18.4652C20.4615 19.3404 19.9246 20.0285 19.2418 20.0285C18.5589 20.0285 18.022 19.3404 18.022 18.4652C18.022 17.59 18.5589 16.9019 19.2418 16.9019" fill="#656565"/>
</svg>
