<svg width="22" height="20" viewBox="0 0 22 20" fill="none" xmlns="http://www.w3.org/2000/svg">
<path fill-rule="evenodd" clip-rule="evenodd" d="M9.78565 1.93322e-08C8.2251 0.000116477 6.68721 0.327131 5.30028 0.95376C3.91336 1.58039 2.71761 2.48846 1.81282 3.60222C0.90802 4.71597 0.320406 6.00312 0.0989992 7.35626C-0.122407 8.7094 0.028814 10.0893 0.540047 11.3808C1.05128 12.6724 1.9077 13.8381 3.03786 14.7807C4.16801 15.7234 5.53913 16.4156 7.03682 16.7997C8.5345 17.1838 10.1153 17.2485 11.6474 16.9886C13.1795 16.7287 14.6184 16.1516 15.8441 15.3054L20.0488 18.9886C20.2659 19.1723 20.5568 19.274 20.8587 19.2717C21.1605 19.2694 21.4493 19.1633 21.6628 18.9763C21.8762 18.7893 21.9973 18.5364 22 18.2719C22.0026 18.0075 21.8865 17.7527 21.6768 17.5625L17.4721 13.8794C18.6096 12.6153 19.3179 11.0962 19.5158 9.49604C19.7138 7.89583 19.3934 6.27912 18.5914 4.83095C17.7894 3.38278 16.5382 2.16164 14.9809 1.30729C13.4236 0.452937 11.6232 -0.000108057 9.78565 1.93322e-08ZM4.60457 8.5725C4.60457 8.30502 4.72587 8.0485 4.94179 7.85936C5.15771 7.67023 5.45057 7.56397 5.75592 7.56397H8.6343V5.04265C8.6343 4.77517 8.7556 4.51865 8.97152 4.32951C9.18744 4.14037 9.48029 4.03412 9.78565 4.03412C10.091 4.03412 10.3839 4.14037 10.5998 4.32951C10.8157 4.51865 10.937 4.77517 10.937 5.04265V7.56397H13.8154C14.1207 7.56397 14.4136 7.67023 14.6295 7.85936C14.8454 8.0485 14.9667 8.30502 14.9667 8.5725C14.9667 8.83998 14.8454 9.0965 14.6295 9.28564C14.4136 9.47477 14.1207 9.58103 13.8154 9.58103H10.937V12.1024C10.937 12.3698 10.8157 12.6264 10.5998 12.8155C10.3839 13.0046 10.091 13.1109 9.78565 13.1109C9.48029 13.1109 9.18744 13.0046 8.97152 12.8155C8.7556 12.6264 8.6343 12.3698 8.6343 12.1024V9.58103H5.75592C5.45057 9.58103 5.15771 9.47477 4.94179 9.28564C4.72587 9.0965 4.60457 8.83998 4.60457 8.5725Z" fill="#656565"/>
</svg>
