<svg width="24" height="24" viewBox="0 0 24 24" fill="none" xmlns="http://www.w3.org/2000/svg">
<path d="M11.3529 21.625C11.3529 22.384 10.6904 23 9.87376 23H2.47918C2.28646 23.0014 2.09532 22.967 1.91668 22.8987C1.73805 22.8304 1.57541 22.7295 1.43805 22.6018C1.3007 22.4741 1.19131 22.3221 1.11615 22.1545C1.04099 21.9869 1.00152 21.807 1 21.625V2.22222C1 1.89807 1.13634 1.58719 1.37904 1.35798C1.62173 1.12877 1.9509 1 2.29412 1H9.87376C10.6904 1 11.3529 1.616 11.3529 2.375V21.625ZM11.3529 8.33332H8.76471H11.3529ZM11.3529 4.66666H7.47059H11.3529ZM11.3529 12H7.47059H11.3529ZM11.3529 19.3333H7.47059H11.3529ZM11.3529 15.6666H8.76471H11.3529ZM23 1H17.8235H23ZM20.4118 1V23V1ZM23 23H17.8235H23Z" fill="#656565"/>
<path d="M11.3529 8.33332H8.76471M11.3529 4.66666H7.47059M11.3529 12H7.47059M11.3529 19.3333H7.47059M11.3529 15.6666H8.76471M23 1H17.8235M20.4118 1V23M23 23H17.8235M11.3529 21.625C11.3529 22.384 10.6904 23 9.87377 23H2.47918C2.28646 23.0014 2.09532 22.967 1.91668 22.8987C1.73805 22.8304 1.57541 22.7295 1.43805 22.6018C1.3007 22.4741 1.19131 22.3221 1.11615 22.1545C1.04099 21.9869 1.00152 21.807 1 21.625V2.22222C1 1.89807 1.13634 1.58719 1.37904 1.35798C1.62173 1.12877 1.9509 1 2.29412 1H9.87377C10.6904 1 11.3529 1.616 11.3529 2.375V21.625Z" stroke="#656565" stroke-width="2" stroke-linecap="round" stroke-linejoin="round"/>
</svg>
