<svg width="22" height="22" viewBox="0 0 22 22" fill="none" xmlns="http://www.w3.org/2000/svg">
<path d="M11 16.621L5.43871 11.0613L6.55129 9.92986L10.2143 13.5929V0H11.7857V13.5929L15.4471 9.93143L16.5613 11.0613L11 16.621ZM2.53943 22C1.81552 22 1.21157 21.758 0.727571 21.274C0.243571 20.79 0.00104762 20.1855 0 19.4606V15.653H1.57143V19.4606C1.57143 19.7026 1.672 19.9247 1.87314 20.1269C2.07429 20.329 2.29586 20.4296 2.53786 20.4286H19.4621C19.7031 20.4286 19.9247 20.328 20.1269 20.1269C20.329 19.9257 20.4296 19.7036 20.4286 19.4606V15.653H22V19.4606C22 20.1845 21.758 20.7884 21.274 21.2724C20.79 21.7564 20.1855 21.999 19.4606 22H2.53943Z" fill="#656565"/>
</svg>
