<svg width="26" height="21" viewBox="0 0 26 21" fill="none" xmlns="http://www.w3.org/2000/svg">
<path d="M22.5345 2.7176e-07C21.7845 -0.000273585 21.0546 0.206436 20.4545 0.589061C19.8545 0.971685 19.4168 1.50955 19.2071 2.12181C18.9974 2.73408 19.0272 3.38766 19.2919 3.98432C19.5565 4.58098 20.0418 5.08849 20.6749 5.43055L18.4135 12.1595C18.3433 12.1557 18.273 12.1537 18.2027 12.1535C17.4572 12.1528 16.7316 12.3576 16.1346 12.7372L11.9568 9.77728C12.1546 9.27837 12.1916 8.74351 12.0638 8.22835C11.936 7.71319 11.6482 7.23655 11.2303 6.84801C10.8124 6.45948 10.2797 6.17324 9.68759 6.01908C9.09547 5.86492 8.46558 5.84847 7.86344 5.97145C7.26131 6.09442 6.70894 6.35232 6.26378 6.71831C5.81863 7.08431 5.49696 7.54504 5.33224 8.05256C5.16752 8.56008 5.16576 9.09585 5.32716 9.60415C5.48855 10.1124 5.8072 10.5747 6.24995 10.9428L3.79748 15.1131C3.69008 15.1044 3.58226 15.1 3.47437 15.0998C2.64416 15.0989 1.84108 15.3511 1.2109 15.8107C0.580727 16.2702 0.165227 16.9066 0.0398219 17.6043C-0.0855828 18.302 0.0874202 19.0149 0.527428 19.6134C0.967437 20.212 1.64528 20.6566 2.43793 20.8665C3.23058 21.0764 4.08549 21.0378 4.84748 20.7576C5.60946 20.4773 6.22802 19.9741 6.59088 19.3393C6.95374 18.7044 7.03684 17.98 6.8251 17.2975C6.61336 16.615 6.12081 16.0197 5.43687 15.6196L7.75441 11.6794C8.31737 11.8114 8.9105 11.82 9.47845 11.7045C10.0464 11.5889 10.5707 11.3529 11.0023 11.0185L15.0472 13.8843C14.7725 14.399 14.6777 14.9699 14.7741 15.529C14.8705 16.0882 15.154 16.612 15.5908 17.038C16.0276 17.4639 16.5992 17.7741 17.2376 17.9315C17.876 18.089 18.5542 18.087 19.1913 17.9258C19.8284 17.7646 20.3975 17.4511 20.8309 17.0225C21.2642 16.594 21.5434 16.0685 21.6352 15.5088C21.727 14.9491 21.6276 14.3788 21.3487 13.8658C21.0699 13.3528 20.6234 12.9188 20.0624 12.6156L22.3237 5.88663C22.3935 5.89022 22.4636 5.89262 22.5345 5.89262C23.4536 5.89262 24.3351 5.5822 24.985 5.02966C25.6349 4.47712 26 3.72772 26 2.94631C26 2.1649 25.6349 1.41549 24.985 0.862954C24.3351 0.310414 23.4536 2.7176e-07 22.5345 2.7176e-07ZM3.47437 19.5193C3.13167 19.5193 2.79666 19.4329 2.51172 19.271C2.22677 19.1092 2.00468 18.8791 1.87353 18.6099C1.74238 18.3407 1.70807 18.0445 1.77493 17.7587C1.84179 17.473 2.00681 17.2105 2.24914 17.0045C2.49147 16.7984 2.80022 16.6581 3.13633 16.6013C3.47245 16.5445 3.82085 16.5736 4.13747 16.6851C4.45408 16.7966 4.7247 16.9854 4.9151 17.2277C5.10549 17.47 5.20712 17.7548 5.20712 18.0461C5.2066 18.4367 5.02388 18.8112 4.69904 19.0873C4.3742 19.3635 3.93377 19.5189 3.47437 19.5193ZM8.6726 10.3121C8.32989 10.3121 7.99488 10.2257 7.70994 10.0638C7.42499 9.90194 7.2029 9.67186 7.07175 9.40268C6.94061 9.1335 6.90629 8.83729 6.97315 8.55153C7.04001 8.26577 7.20504 8.00327 7.44736 7.79725C7.68969 7.59123 7.99844 7.45092 8.33455 7.39408C8.67067 7.33724 9.01907 7.36641 9.33569 7.47791C9.6523 7.58941 9.92292 7.77823 10.1133 8.02049C10.3037 8.26275 10.4053 8.54756 10.4053 8.83893C10.4048 9.2295 10.2221 9.60395 9.89726 9.88012C9.57242 10.1563 9.13199 10.3116 8.6726 10.3121ZM18.2027 16.573C17.86 16.573 17.525 16.4866 17.24 16.3247C16.9551 16.1628 16.733 15.9328 16.6018 15.6636C16.4707 15.3944 16.4364 15.0982 16.5032 14.8124C16.5701 14.5267 16.7351 14.2642 16.9774 14.0582C17.2198 13.8521 17.5285 13.7118 17.8646 13.655C18.2007 13.5981 18.5491 13.6273 18.8658 13.7388C19.1824 13.8503 19.453 14.0391 19.6434 14.2814C19.8338 14.5237 19.9354 14.8085 19.9354 15.0998C19.9349 15.4904 19.7522 15.8649 19.4273 16.141C19.1025 16.4172 18.6621 16.5725 18.2027 16.573ZM22.5345 4.41946C22.1918 4.41946 21.8568 4.33307 21.5719 4.17119C21.2869 4.00932 21.0648 3.77925 20.9337 3.51006C20.8025 3.24088 20.7682 2.94468 20.8351 2.65891C20.9019 2.37315 21.067 2.11066 21.3093 1.90463C21.5516 1.69861 21.8604 1.5583 22.1965 1.50146C22.5326 1.44462 22.881 1.47379 23.1976 1.58529C23.5142 1.69679 23.7848 1.88561 23.9752 2.12787C24.1656 2.37013 24.2673 2.65495 24.2673 2.94631C24.2667 3.33688 24.084 3.71133 23.7592 3.9875C23.4343 4.26368 22.9939 4.41903 22.5345 4.41946Z" fill="#656565"/>
</svg>
