<svg width="22" height="22" viewBox="0 0 22 22" fill="none" xmlns="http://www.w3.org/2000/svg">
<path fill-rule="evenodd" clip-rule="evenodd" d="M7.15391 0C5.63933 0 4.3956 1.1198 4.3956 2.4827C4.3956 3.25138 4.79184 3.94218 5.40882 4.3989L3.18291 8.5382C3.04264 8.51719 2.90075 8.50623 2.75855 8.50542C1.24447 8.50564 0 9.62522 0 10.9879C0 12.3506 1.24422 13.4706 2.75855 13.4706C4.22033 13.4706 5.41884 12.4245 5.50097 11.1261C5.51139 11.0807 5.51647 11.0345 5.51613 10.9881C5.51647 10.9418 5.51139 10.8956 5.50097 10.8502C5.45795 10.1697 5.10595 9.56054 4.57233 9.13286L6.82391 4.9456C6.93244 4.95726 7.04195 4.96474 7.15391 4.96474C8.16786 4.96474 9.05446 4.4616 9.53039 3.71998L13.4439 4.65058C13.6493 5.8069 14.7517 6.70472 16.0817 6.74124L17.6215 10.9652C16.9346 11.4184 16.4839 12.1477 16.4839 12.9664C16.4839 14.3293 17.7276 15.4484 19.2419 15.4484C20.7037 15.4484 21.9027 14.4027 21.9846 13.1043C21.9951 13.059 22.0002 13.0128 22 12.9666C22.0003 12.9202 21.9952 12.874 21.9848 12.8286C21.9027 11.5302 20.7037 10.4837 19.2419 10.4837C19.1833 10.4837 19.1258 10.4881 19.0681 10.4914L17.5729 6.3888C18.3311 5.9752 18.8545 5.24216 18.9075 4.4011C18.918 4.35573 18.9232 4.3095 18.9229 4.26316C18.9233 4.21683 18.9182 4.17059 18.9078 4.12522C18.8256 2.82678 17.6266 1.78046 16.1649 1.78046C15.0441 1.78046 14.0729 2.3947 13.6429 3.26634L9.90244 2.37578L9.89657 2.34498C9.81468 1.04632 8.61568 0 7.15391 0ZM7.15391 1.38446C7.83664 1.38446 8.37368 1.86824 8.37368 2.4827C8.37368 3.09716 7.83664 3.58006 7.15391 3.58006C6.47117 3.58006 5.93413 3.09716 5.93413 2.4827C5.93413 1.86824 6.47093 1.38446 7.15391 1.38446ZM16.1649 3.1647C16.8476 3.1647 17.3846 3.64848 17.3846 4.26294C17.3846 4.8774 16.8476 5.3603 16.1649 5.3603C15.4821 5.3603 14.9451 4.8774 14.9451 4.26294C14.9451 3.64848 15.4821 3.1647 16.1649 3.1647ZM2.75855 9.8901C3.44129 9.8901 3.97784 10.3734 3.97784 10.9879C3.97784 11.6024 3.44129 12.0857 2.75855 12.0857C2.07582 12.0857 1.53829 11.6024 1.53829 10.9879C1.53829 10.3734 2.07582 9.8901 2.75855 9.8901ZM19.2419 11.8679C19.9247 11.8679 20.4617 12.3519 20.4617 12.9664C20.4617 13.5808 19.9247 14.0637 19.2419 14.0637C18.5592 14.0637 18.0221 13.5808 18.0221 12.9661C18.0221 12.3515 18.5592 11.8679 19.2419 11.8679ZM0 16.72V22H22V16.72H20.4673V20.6571H18.5883V17.8583H17.0556V20.6571H15.178V17.8583H13.6459V20.6571H11.7661V16.72H10.2337V20.6571H8.35388V17.8583H6.82195V20.6571H4.94437V17.8583H3.41171V20.6571H1.53267V16.72H0Z" fill="#656565"/>
</svg>
